<svg id="Layer_1" data-name="Layer 1" xmlns="http://www.w3.org/2000/svg" viewBox="0 0 540 540"><defs><style>.cls-1{fill:#fff;}.cls-2{fill:#444e3f;}</style></defs><title>trash-bin</title><circle class="cls-1" cx="270" cy="270" r="270"/><path class="cls-2" d="M540.07,422.33q65.65,0,131.3,0c8.48,0,13.81,5.41,13.46,13.45-.24,5.82-4.1,10.76-10.08,11.47a123.17,123.17,0,0,1-19.11.7c-4.84-.18-6.25,1.28-6.24,6.2.15,79.12-.08,158.24.3,237.35.06,12.15-8,20.82-20.86,20.72q-89.13-.69-178.26,0c-11.79.08-20.3-8.4-20.25-20.31.36-78.61.2-157.22.17-235.83,0-8.41,1.37-7.93-8.24-8a134.94,134.94,0,0,1-16.1-.63c-7.45-1-11.51-6.47-11-13.76.5-6.64,5.77-11.31,13.07-11.31Q474.17,422.3,540.07,422.33ZM499.44,567.15h0c0-1.68,0-3.36,0-5,0-23.73.05-47.46,0-71.19,0-8.1-5-12.85-12.53-12.3-6.25.45-10.24,5.24-10.25,12.6q0,64.86,0,129.74c0,7.91-.1,15.82.08,23.72.14,6.74,5.07,11.24,11.74,11.08s11-4.82,11-12.38C499.48,618,499.44,592.56,499.44,567.15Zm81.14-.51q0,37.36,0,74.72a23.55,23.55,0,0,0,.84,7.43c1.74,5,7.14,7.75,12.67,6.89a11.09,11.09,0,0,0,9.2-10.49c.19-4.7.09-9.42.09-14.13q0-69.67,0-139.33c0-7.59-3.66-12.41-9.74-13.09-7.65-.86-13,4-13,12.28C580.54,516.16,580.59,541.4,580.58,566.64Z" transform="translate(-270 -270)"/><path class="cls-2" d="M540.54,367.79q24.71,0,49.42,0c8.06,0,13.62,4.85,14,12.06.35,6.86-4.57,12.28-12.31,13.39a41.78,41.78,0,0,1-6,.27q-45.63,0-91.27,0a42.86,42.86,0,0,1-8-.68,12.6,12.6,0,0,1,2.26-25C505.91,367.73,523.23,367.79,540.54,367.79Z" transform="translate(-270 -270)"/></svg>